<?xml version="1.0" encoding="iso-8859-1"?>
<!-- Generator: Adobe Illustrator 19.0.0, SVG Export Plug-In . SVG Version: 6.00 Build 0)  -->
<svg version="1.1" id="Capa_1" xmlns="http://www.w3.org/2000/svg" xmlns:xlink="http://www.w3.org/1999/xlink" x="0px" y="0px"
	 viewBox="0 0 512 512" style="enable-background:new 0 0 512 512;" xml:space="preserve">
<g>
	<g>
		<path d="M487.068,339.443c-1.86-1.86-4.441-2.93-7.071-2.93c-2.64,0-5.211,1.07-7.081,2.93c-1.86,1.86-2.92,4.441-2.92,7.071
			s1.06,5.211,2.92,7.071c1.87,1.86,4.441,2.93,7.081,2.93c2.63,0,5.211-1.07,7.071-2.93c1.86-1.86,2.93-4.441,2.93-7.071
			S488.928,341.304,487.068,339.443z"/>
	</g>
</g>
<g>
	<g>
		<path d="M510.197,236.76l-40.507-57.997c-0.004-0.006-0.009-0.012-0.013-0.019c-0.002-0.002-0.003-0.005-0.005-0.007
			c-0.003-0.004-0.006-0.008-0.01-0.012c-0.062-0.087-0.124-0.174-0.188-0.26l-35.268-46.735
			c-17.368-23.015-44.951-36.756-73.784-36.756h-4.116V69.637c0-23.53-19.143-42.674-42.674-42.674
			c-23.531,0-42.674,19.143-42.674,42.674v35.339c0,23.53,19.143,42.674,42.674,42.674c0.635,0,1.266-0.02,1.895-0.048
			c-4.752,11.106-2.971,24.407,5.512,33.924l47.771,53.59c1.355,1.521,2.102,3.481,2.102,5.518v62.254v20.003
			c0,11.914,6.98,22.227,17.066,27.067v82.663c-11.425,7.15-19.775,18.777-22.554,32.412h-76.737
			c-5.524,0-10.002,4.478-10.002,10.002s4.478,10.002,10.002,10.002h193.465c5.524,0,10.002-4.478,10.002-10.002
			s-4.478-10.002-10.002-10.002h-5.232c0.329-1.616,0.503-3.289,0.503-5.001V445.03h2.569c5.524,0,10.002-4.478,10.002-10.002
			V382.02c0-5.524-4.478-10.002-10.002-10.002c-5.524,0-10.002,4.478-10.002,10.002v43.007h-62.01v-72.98
			c13.146-3.185,22.942-15.045,22.942-29.157v-20.003v-5.235l39.069-23.881v31.736c0,5.524,4.478,10.002,10.002,10.002
			c5.524,0,10.002-4.478,10.002-10.002v-41.507c0-0.789-0.101-1.553-0.274-2.289l17.492-10.692c2.354-1.438,4.009-3.786,4.574-6.485
			C512.352,241.834,511.776,239.021,510.197,236.76z M313.634,127.646c-12.501,0-22.671-10.17-22.671-22.671V69.637
			c0-12.501,10.17-22.671,22.671-22.671s22.671,10.17,22.671,22.671v35.339C336.305,117.476,326.135,127.646,313.634,127.646z
			 M414.427,445.03h42.994v15.002c0,2.757-2.243,5.001-5.001,5.001h-66.285C390.263,453.391,401.387,445.03,414.427,445.03z
			 M410.92,322.891c0,5.515-4.487,10.002-10.002,10.002s-10.002-4.487-10.002-10.002v-10.002h20.003V322.891z M410.921,292.885
			h-20.003v-52.252c0-6.952-2.547-13.639-7.173-18.829l-47.772-53.589c-4.218-4.732-4.021-11.959,0.45-16.452
			c2.405-2.418,5.602-3.676,9.016-3.528c3.409,0.144,6.493,1.661,8.687,4.273l45.562,54.253
			c7.243,8.625,11.233,19.578,11.233,30.841V292.885z M420.343,201.196c-1.609-2.538-3.39-4.979-5.338-7.299l-45.562-54.254
			c-5.133-6.111-12.39-10.066-20.24-11.127c2.707-4.078,4.729-8.645,5.909-13.539h5.311c22.594,0,44.207,10.768,57.817,28.802
			l29.037,38.478L420.343,201.196z M430.923,274.209v-36.606c0-6.025-0.807-11.986-2.362-17.732l30.476-21.43l28.674,41.056
			L430.923,274.209z"/>
	</g>
</g>
<g>
	<g>
		<path d="M240.108,467.964c-1.86-1.86-4.441-2.93-7.071-2.93s-5.211,1.07-7.071,2.93s-2.93,4.441-2.93,7.071s1.07,5.211,2.93,7.071
			s4.441,2.93,7.071,2.93s5.211-1.07,7.071-2.93c1.86-1.86,2.93-4.441,2.93-7.071S241.968,469.824,240.108,467.964z"/>
	</g>
</g>
<g>
	<g>
		<path d="M198.365,26.963c-23.531,0-42.674,19.143-42.674,42.674v25.337h-4.116c-28.833,0-56.416,13.74-73.784,36.756
			l-35.268,46.735c-0.064,0.086-0.127,0.172-0.188,0.26c-0.003,0.004-0.006,0.008-0.009,0.012c-0.002,0.002-0.003,0.005-0.005,0.007
			c-0.004,0.006-0.009,0.012-0.013,0.019L1.802,236.76c-1.58,2.261-2.155,5.075-1.59,7.775c0.565,2.7,2.219,5.047,4.574,6.485
			l17.492,10.692c-0.173,0.736-0.274,1.5-0.274,2.289v171.028c0,5.524,4.478,10.002,10.002,10.002h2.569v15.002
			c0,1.712,0.174,3.385,0.503,5.001H17.571c-5.524,0-10.002,4.478-10.002,10.002c0,5.524,4.478,10.002,10.002,10.002h177.46
			c5.524,0,10.002-4.478,10.002-10.002c0-5.524-4.478-10.002-10.002-10.002h-48.458c-2.779-13.635-11.129-25.262-22.554-32.412
			v-82.663c10.085-4.841,17.066-15.153,17.066-27.067v-20.003v-62.254c0-2.037,0.747-3.998,2.102-5.518l47.771-53.59
			c8.484-9.518,10.264-22.82,5.512-33.924c0.629,0.028,1.259,0.048,1.895,0.048c23.53,0,42.674-19.143,42.674-42.674V69.637
			C241.039,46.107,221.896,26.963,198.365,26.963z M93.758,143.78c13.609-18.035,35.224-28.802,57.817-28.802h5.311
			c1.18,4.894,3.201,9.461,5.909,13.539c-7.85,1.062-15.106,5.016-20.239,11.128l-45.562,54.253
			c-1.948,2.32-3.729,4.761-5.338,7.299l-26.933-18.939L93.758,143.78z M101.079,312.889h20.003v10.002
			c0,5.515-4.487,10.002-10.002,10.002s-10.002-4.487-10.002-10.002V312.889z M24.288,239.497l28.674-41.056l30.476,21.429
			c-1.555,5.746-2.362,11.707-2.362,17.732v36.606L24.288,239.497z M42.006,273.772l39.069,23.881v5.235v20.003
			c0,14.111,9.795,25.972,22.942,29.157v72.98H42.006V273.772z M125.863,465.034H59.578c-2.757,0-5.001-2.243-5.001-5.001V445.03
			h42.994C110.611,445.03,121.734,453.391,125.863,465.034z M176.026,168.214l-47.771,53.59c-4.626,5.189-7.173,11.877-7.173,18.829
			v52.253h-20.003v-55.283c0-11.263,3.99-22.216,11.233-30.841l45.562-54.253c2.193-2.612,5.279-4.13,8.687-4.274
			c3.406-0.138,6.609,1.109,9.015,3.528C180.046,156.257,180.243,163.484,176.026,168.214z M221.035,104.975
			c0,12.501-10.17,22.671-22.671,22.671s-22.671-10.17-22.671-22.671V69.637h0.001c0-12.501,10.17-22.671,22.671-22.671
			s22.67,10.17,22.67,22.671V104.975z"/>
	</g>
</g>
<g>
</g>
<g>
</g>
<g>
</g>
<g>
</g>
<g>
</g>
<g>
</g>
<g>
</g>
<g>
</g>
<g>
</g>
<g>
</g>
<g>
</g>
<g>
</g>
<g>
</g>
<g>
</g>
<g>
</g>
</svg>
