<?xml version="1.0" encoding="iso-8859-1"?>
<!-- Generator: Adobe Illustrator 19.0.0, SVG Export Plug-In . SVG Version: 6.00 Build 0)  -->
<svg version="1.1" id="Capa_1" xmlns="http://www.w3.org/2000/svg" xmlns:xlink="http://www.w3.org/1999/xlink" x="0px" y="0px"
	 viewBox="0 0 512 512" style="enable-background:new 0 0 512 512;" xml:space="preserve">
<g>
	<g>
		<path d="M483,134.68h-16c-8.806,0-16.702,3.951-22.025,10.167h-19.184c-0.942-4.545-4.967-7.96-9.791-7.96h-75.198
			c9.758-4.513,18.274-11.948,24.045-21.944l4-6.928c7.212-12.491,9.128-27.044,5.395-40.976
			c-3.733-13.933-12.669-25.577-25.16-32.789c-12.492-7.212-27.045-9.126-40.977-5.395c-13.933,3.733-25.577,12.668-32.789,25.16
			l-4,6.929c-14.888,25.787-6.021,58.877,19.766,73.765c1.379,0.796,2.781,1.517,4.197,2.179h-26.231
			c-5.742,0-11.325,1.112-16.499,3.173c-0.073,0.027-0.146,0.045-0.218,0.074l-77.666,30.643
			c-10.466,4.129-18.248,12.7-21.352,23.514c-3.104,10.814-1.05,22.208,5.634,31.258l16.161,21.885v15.463l-49.203,81.729
			l-11.937,8.065c-4.576,3.092-5.779,9.309-2.688,13.885c1.933,2.86,5.085,4.402,8.295,4.402c1.927,0,3.874-0.556,5.59-1.715
			l13.767-9.302c1.205-0.814,2.219-1.882,2.969-3.128l34.179-56.773c3.235,20.252,14.412,37.885,30.231,49.595l-41.021,41.858
			L73.249,429.05c-4.915-2.577-10.499-4.043-16.422-4.043H42.662l24.647-16.653c4.576-3.092,5.779-9.309,2.688-13.885
			c-3.093-4.577-9.311-5.778-13.885-2.688L4.42,426.709C1.754,428.505,0,431.551,0,435.008v40c0,5.522,4.478,10,10,10h72.319
			c5.522,0,10-4.478,10-10v-14.507c0-5.777-1.396-11.231-3.855-16.056l86.295-35.194c1.265-0.516,2.41-1.285,3.366-2.261
			l46.404-47.352c8.508,3.258,17.73,5.06,27.37,5.06h60.815l26.195,73.66c1.052,2.957,3.355,5.106,6.102,6.075v15.574
			c0,1.712,0.174,3.384,0.503,5H240.578c-5.522,0-10,4.478-10,10c0,5.522,4.478,10,10,10H448c5.522,0,10-4.478,10-10
			c0-25.28-18.863-46.225-43.251-49.532l-46.073-105.502c-3.949-9.04-11.151-16.075-20.28-19.812l-56.81-23.249l34.366-60.026H416
			c5.522,0,10-4.477,10-10v-0.04h18.975c5.323,6.216,13.219,10.167,22.025,10.167h16c15.99,0,29-13.009,29-29V163.68
			C512,147.69,498.99,134.68,483,134.68z M72.319,465.008H20v-20h36.826c8.543,0,15.493,6.95,15.493,15.493V465.008z
			 M288.636,70.943l4-6.928c4.541-7.865,11.873-13.491,20.646-15.841c2.929-0.785,5.901-1.173,8.854-1.173
			c5.892,0,11.707,1.545,16.945,4.57c16.236,9.374,21.819,30.209,12.445,46.445l-4,6.928c-4.541,7.865-11.873,13.491-20.646,15.841
			c-8.771,2.353-17.936,1.144-25.8-3.396C284.846,108.014,279.263,87.179,288.636,70.943z M175.034,213.667
			c-2.963-4.013-3.874-9.065-2.498-13.86c1.377-4.795,4.827-8.596,9.468-10.426l38.087-15.027l-35.356,52.45L175.034,213.667z
			 M408.006,445.011c0.01,0,0.02-0.001,0.03-0.001c13.021,0.014,24.127,8.367,28.25,19.998h-41.949h-24.324c-2.757,0-5-2.243-5-5
			v-15h42.952C407.979,445.008,407.992,445.011,408.006,445.011z M340.821,318.672c4.288,1.754,7.672,5.06,9.527,9.306
			l42.374,97.029H355.39l-26.195-73.66c-1.418-3.986-5.19-6.649-9.422-6.649H251.9c-31.315,0-56.793-25.478-56.793-56.793v-28.866
			L340.821,318.672z M406,196.846v0.041H293.868c-5.522,0-10,4.477-10,10c0,5.523,4.478,10,10,10h9.037l-29.991,52.384
			l-72.646-29.73l48.417-71.824c4.572-6.782,12.185-10.831,20.362-10.831H406V196.846z M438,186.847h-12v-22h12V186.847z
			 M492,188.014c0,4.962-4.037,9-9,9h-16c-4.963,0-9-4.038-9-9V163.68c0-4.962,4.037-9,9-9h16c4.963,0,9,4.038,9,9V188.014z"/>
	</g>
</g>
<g>
	<g>
		<path d="M97.299,373.728c-1.86-1.86-4.43-2.93-7.07-2.93c-2.63,0-5.21,1.069-7.069,2.93c-1.86,1.86-2.931,4.43-2.931,7.07
			c0,2.63,1.07,5.21,2.931,7.069c1.86,1.86,4.44,2.931,7.069,2.931c2.63,0,5.21-1.07,7.07-2.931c1.87-1.859,2.93-4.439,2.93-7.069
			C100.229,378.157,99.169,375.588,97.299,373.728z"/>
	</g>
</g>
<g>
	<g>
		<path d="M209.83,467.938c-1.86-1.861-4.44-2.93-7.07-2.93s-5.21,1.069-7.07,2.93c-1.859,1.86-2.93,4.44-2.93,7.07
			s1.07,5.21,2.93,7.069c1.86,1.86,4.44,2.931,7.07,2.931s5.21-1.07,7.07-2.931c1.859-1.859,2.93-4.439,2.93-7.069
			S211.69,469.798,209.83,467.938z"/>
	</g>
</g>
<g>
</g>
<g>
</g>
<g>
</g>
<g>
</g>
<g>
</g>
<g>
</g>
<g>
</g>
<g>
</g>
<g>
</g>
<g>
</g>
<g>
</g>
<g>
</g>
<g>
</g>
<g>
</g>
<g>
</g>
</svg>
